<?xml version="1.0" standalone="no"?>
<!DOCTYPE svg PUBLIC "-//W3C//DTD SVG 20010904//EN"
 "http://www.w3.org/TR/2001/REC-SVG-20010904/DTD/svg10.dtd">
<svg version="1.0" xmlns="http://www.w3.org/2000/svg"
 width="200.000000pt" height="200.000000pt" viewBox="0 0 200.000000 200.000000"
 preserveAspectRatio="xMidYMid meet">
<metadata>
Created by potrace 1.11, written by Peter Selinger 2001-2013
</metadata>
<g transform="translate(0.000000,200.000000) scale(0.100000,-0.100000)"
fill="#000000" stroke="none">
<path d="M1508 1655 c-2 -1 -39 -5 -83 -9 -135 -10 -265 -53 -344 -113 -29
-23 -33 -24 -27 -7 11 28 36 108 36 117 0 4 -15 4 -32 0 -18 -4 -80 -6 -138
-5 -453 8 -463 7 -535 -12 -235 -63 -371 -216 -379 -426 -6 -128 38 -184 152
-197 42 -4 44 -4 36 19 -21 66 -22 100 -10 224 14 141 81 229 189 249 36 7 38
6 32 -16 -9 -40 -56 -252 -61 -279 -3 -14 -34 -160 -70 -325 -35 -165 -66
-311 -69 -325 -2 -14 -16 -75 -30 -137 -14 -61 -25 -116 -25 -120 0 -9 256
-11 262 -3 2 3 11 41 20 85 9 44 29 134 43 200 14 66 35 165 46 220 12 55 25
104 29 108 4 5 67 9 139 8 72 0 131 1 131 2 0 1 9 32 19 70 l20 67 -140 0
c-76 0 -139 3 -139 6 0 12 83 399 86 403 1 2 34 -2 71 -9 126 -22 189 -23 224
-6 18 9 33 16 35 16 1 0 -13 -25 -31 -56 -39 -65 -59 -143 -58 -231 1 -103 49
-157 147 -169 51 -7 50 -7 36 32 -12 31 -14 146 -5 219 17 122 78 211 162 234
56 16 64 14 58 -11 -27 -121 -35 -159 -39 -179 -2 -13 -16 -76 -29 -139 -49
-226 -99 -455 -103 -475 -3 -11 -7 -31 -10 -45 -3 -14 -10 -45 -16 -70 -5 -25
-12 -58 -15 -75 -2 -16 -10 -55 -18 -85 -7 -30 -16 -71 -19 -90 l-6 -35 130 0
131 0 9 35 c5 19 11 46 14 60 2 14 11 54 20 90 8 36 17 76 19 90 19 103 71
337 77 344 5 4 67 8 139 8 l131 0 16 56 c8 31 17 63 19 70 3 9 -28 12 -136 12
-139 0 -139 0 -135 23 16 86 79 373 83 380 3 5 19 6 37 3 202 -38 283 -26 335
50 23 33 57 131 49 140 -3 2 -31 -1 -64 -7 -55 -10 -140 -9 -314 6 -36 3 -73
8 -82 9 -9 2 -18 3 -20 1z"/>
</g>
</svg>
